<?xml version="1.0" encoding="iso-8859-1"?>
<!-- Generator: Adobe Illustrator 16.0.0, SVG Export Plug-In . SVG Version: 6.00 Build 0)  -->
<!DOCTYPE svg PUBLIC "-//W3C//DTD SVG 1.1//EN" "http://www.w3.org/Graphics/SVG/1.1/DTD/svg11.dtd">
<svg version="1.1" id="Capa_1" xmlns="http://www.w3.org/2000/svg" xmlns:xlink="http://www.w3.org/1999/xlink" x="0px" y="0px"
	 width="31.686px" height="31.686px" viewBox="0 0 31.686 31.686" style="enable-background:new 0 0 31.686 31.686;"
	 xml:space="preserve">
<g>
	<g>
		<path d="M31.285,7.16h-9.346V6.102h-2.479V7.16h-8.877H9.953v1.275h0.631v3.125l-1.418-0.347c0.085-0.613,0.28-0.962,0.321-1.924
			C9.56,7.647,9.655,2.235,4.929,2.235c-0.497,0.001-1.08,0.062-1.333,0.174C3.344,2.523,3.298,2.781,3.134,2.837
			c-0.17,0.058-0.412,0.035-0.562,0.106C0.232,4.07,0.313,6.819,0.313,6.819l0.346,5.644L0,18.792l1.481,0.135l0.589-4.547
			c0.357,1.208,0.696,2.322,0.696,2.322l-0.389,3.052h2.471v-5.474l-1.334-2.531l0.374-0.095v-1.421
			C2.447,9.779,1.385,8.494,1.265,6.936l0.988,0.143v0.604h2.592V7.256h0.457v0.426h2.592V7.093l0.823-0.129
			c-0.048,1.305-0.72,3.051-2.724,3.312v1.327H6l0.477,0.227l-1.305,2.349v5.574h1.314H7.73l-0.468-3.146
			c0,0,0.194-1.279,0.427-2.626l2.895,0.349v6.688h9.137v2.343l-5.042,5.688h1.812l3.402-3.844v3.844h1.043v-3.84l3.398,3.84h1.841
			l-5.071-5.688v-2.343h10.183V8.436h0.399V7.16H31.285z M4.556,7.393H2.541V6.367h2.015V7.393z M7.605,7.393H5.59V6.367h2.016
			L7.605,7.393L7.605,7.393z M7.894,6.655V6.079H5.302V6.68H4.845V6.079H2.253v0.562l-1-0.143c0.008-0.074,0.019-0.146,0.026-0.221
			c1.042-0.07,2.219-0.891,2.31-2.033c1.319,1.092,3.187,1.145,4.744,1.283C8.526,5.619,8.669,6.01,8.709,6.529L7.894,6.655z
			 M30.395,20.08h-9.291h-1.383h-8.245v-5.642l3.427,0.413l0.007-2.229l-3.434-0.843V8.436h18.917V20.08H30.395z"/>
		<path d="M7.69,20.08L2.376,20.06l-0.119,3.585h1.644v4.866c-0.75,0.013-1.212,0.13-1.212,0.466c0,0.354,0.73,0.473,0.73,0.473
			h0.482h1.156h0.057c0,0,0-0.251,0-0.444c0-0.068-0.018-0.138-0.057-0.197v-5.162h0.614l0.212,2.016l-0.329,3.062
			c-0.092,0.08-0.132,0.178-0.132,0.281c0,0.194,0,0.445,0,0.445h0.055h1.166h0.475c0,0,0.73-0.117,0.73-0.473
			c0-0.322-0.433-0.442-1.129-0.462l0.233-2.854L6.79,23.645h1.103L7.69,20.08z"/>
	</g>
</g>
<g>
</g>
<g>
</g>
<g>
</g>
<g>
</g>
<g>
</g>
<g>
</g>
<g>
</g>
<g>
</g>
<g>
</g>
<g>
</g>
<g>
</g>
<g>
</g>
<g>
</g>
<g>
</g>
<g>
</g>
</svg>
